<?xml version="1.0" encoding="UTF-8"?>
<svg id="Capa_1" data-name="Capa 1" xmlns="http://www.w3.org/2000/svg" viewBox="0 0 24 23.42">
  <defs>
    <style>
      .cls-1 {
        fill: #fff;
      }
    </style>
  </defs>
  <path class="cls-1" d="m12,0C5.4,0,0,5.4,0,12c0,5.3,3.4,9.8,8.2,11.4.6.1.8-.3.8-.6v-2.2c-3.3.7-4-1.4-4-1.4-.5-1.4-1.3-1.8-1.3-1.8-1.1-.7.1-.7.1-.7,1.2.1,1.8,1.2,1.8,1.2,1.1,1.8,2.8,1.3,3.5,1,.1-.8.4-1.3.8-1.6-2.8-.3-5.6-1.3-5.6-5.9,0-1.3.5-2.4,1.2-3.2,0-.3-.5-1.6.2-3.2,0,0,1-.3,3.3,1.2,1-.3,2-.4,3-.4s2,.1,3,.4c2.3-1.5,3.3-1.2,3.3-1.2.7,1.7.2,2.9.1,3.2.8.8,1.2,1.9,1.2,3.2,0,4.6-2.8,5.6-5.5,5.9.4.4.8,1.1.8,2.2v3.3c0,.3.2.7.8.6,4.9-1.6,8.3-6.1,8.3-11.4C24,5.4,18.6,0,12,0Z"/>
</svg>